<?xml version="1.0" encoding="utf-8"?>
<!-- Generator: Adobe Illustrator 23.0.1, SVG Export Plug-In . SVG Version: 6.00 Build 0)  -->
<svg version="1.1"
	 id="svg947" xmlns:cc="http://creativecommons.org/ns#" xmlns:dc="http://purl.org/dc/elements/1.1/" xmlns:inkscape="http://www.inkscape.org/namespaces/inkscape" xmlns:rdf="http://www.w3.org/1999/02/22-rdf-syntax-ns#" xmlns:sodipodi="http://sodipodi.sourceforge.net/DTD/sodipodi-0.dtd" xmlns:svg="http://www.w3.org/2000/svg"
	 xmlns="http://www.w3.org/2000/svg" xmlns:xlink="http://www.w3.org/1999/xlink" x="0px" y="0px" viewBox="0 0 504 504"
	 style="enable-background:new 0 0 504 504;" xml:space="preserve">
<style type="text/css">
	.st0{fill:#BB9645;}
</style>
<g>
	<path class="st0" d="M252,494.2C118.4,494.2,9.8,385.6,9.8,252C9.8,118.4,118.4,9.8,252,9.8S494.2,118.4,494.2,252
		C494.2,385.6,385.6,494.2,252,494.2z M252,25.1C126.9,25.1,25.1,126.9,25.1,252c0,125.1,101.8,226.9,226.9,226.9
		c125.1,0,226.9-101.8,226.9-226.9C478.9,126.9,377.1,25.1,252,25.1z"/>
	<path class="st0" d="M252,453.4c-31.4,0-62.8-7.3-91.5-21.9c-3.8-1.9-5.3-6.5-3.3-10.3c1.9-3.8,6.5-5.2,10.3-3.3
		c53,27,116.2,27,169.2-0.1c3.8-1.9,8.4-0.4,10.3,3.3c1.9,3.8,0.4,8.4-3.3,10.3C314.9,446.1,283.5,453.4,252,453.4z M437.6,315.4
		c-0.7,0-1.5-0.1-2.2-0.3c-4-1.2-6.3-5.5-5.1-9.5c11-36.8,10.5-75.4-1.5-111.9c-1.3-4,0.9-8.3,4.9-9.7c4-1.3,8.3,0.9,9.7,4.9
		c12.9,39.4,13.5,81.3,1.6,121C444,313.3,440.9,315.4,437.6,315.4z M66,314.3c-3.3,0-6.4-2.2-7.3-5.5
		c-11.1-38.1-10.9-78.3,0.8-116.2c1.2-4,5.5-6.3,9.6-5.1c4,1.2,6.3,5.5,5.1,9.6c-10.8,35-11,72.2-0.7,107.4c1.2,4.1-1.1,8.3-5.2,9.5
		C67.5,314.2,66.7,314.3,66,314.3z M170.3,83.9c-2.9,0-5.6-1.6-6.9-4.4c-1.8-3.8-0.1-8.4,3.7-10.2c53.9-25.1,115.8-25.1,169.7-0.1
		c3.8,1.8,5.5,6.3,3.7,10.2c-1.8,3.8-6.3,5.5-10.2,3.7c-49.8-23.1-107-23.1-156.8,0C172.5,83.6,171.4,83.9,170.3,83.9z"/>
</g>
<g>
	<path class="st0" d="M163.3,297.8c5.2-1,16.6-3.1,30-5.2c1.7-0.2,3.2,1.3,2.7,3c-0.8,3.1-1.7,6.2-2.8,9.3c-0.3,1.1,0.6,2.3,1.8,2.1
		c60.3-11.6,102.9-31.9,138.3-60.1c1.8-1.5,3.1-3.6,3.4-6c2.6-18-2.6-28.2-8.1-33c-5.8-5.2-10.3-10.5-41.8-12.4
		c-17.9-0.7-27.7,0.2-30.9,0.6c-0.6,0.1-0.8,0.7-0.6,1.1c3.2,5,17.2,28.4,13,49.8l-6.9-24.3c-4.6-12.4-11.6-24.7-14.9-29
		c-0.9-1.3-0.5-2.5,1-2.7c4.2-0.7,12.8-1,22.3-1.7c11.3-0.5,22.1-0.1,29.3,0.8c-8.1-39.2-25.1-53.5-63.3-56V96.2
		c0-0.9-0.8-1.7-1.7-1.7h-5.6c-0.9,0-1.7,0.8-1.7,1.7v37.2c-31.8-0.9-59.3,2.1-68.1,3c-1.1,0.1-1.7,1.4-1.1,2.4
		c3.1,5.1,15.3,20.2,20.2,41.3c-11.4-0.2-23.8,1.3-35.8,5.9c-1.3,0.5-1.6,2.1-0.8,3.1c31.6,38.8,22.3,92.9,19.5,106.4
		C160.6,296.8,161.8,298.1,163.3,297.8z"/>
	<path class="st0" d="M200.7,110.7c0,0-0.8-3.3-0.1-6.3c8.4-1.8,20.7,1.7,20.7,1.7s0-5.6,0-10.1c-6.4-3-20.5-2.5-25.1-1.5
		s-5.5,3.3-6.4,5.2c-9.1,0.3-18.8,2.5-18.8,2.5l6,3.6l-5,5.6C180.4,107.9,200.7,110.7,200.7,110.7z"/>
	<path class="st0" d="M354.1,363.3c-12.9-3.5-10.4-3.5-25.7-6.5c8.7-10.4,35.9-44.7,29.2-55.6c-8-12.9-17.2-21.4-14.2-33.7
		c3-12.3,23.6-26.5,28.2-30.5c4.7-4-3.6-11.3-7.3-8.1c-3.6,3.2-6.3,5.6-15.1,12.1c-10.9,8-19.8,17.9-18.9,31.8
		c0.9,12.4,1,47.6-15.1,66.4c-0.8,1-2.4,0-1.8-1.3c3.9-8.8,4.9-20.7,4.1-30.4c-33.5,16.7-63.4,20-83.3,19.9c-1.1,0-1.4-1.7-0.2-1.9
		c32-6.5,80.1-23.2,82.7-30.4c3-8-1.3-22.4-1.3-22.4s-15.8,7.9-38.6,17c-7.5,3.3-15.7,6.4-24.6,9.2c-1.9,0.6-3.9,1.3-5.7,1.8
		c-25.9,8.5-60.7,16.4-80,15.7c-15.6-0.6-25.9-2.1-29.2-2.5c-0.6-0.1-1.1,0.3-1.1,1c0.3,5.8,2.4,30.4,13.6,42
		c-2.5,0.6-6.9,1.7-10.4,3.4c-3.3,1.7-12.6,10.8-5.7,10c39.1-4.4,89.3-8.5,113.1-7.9c25.1,0.7,74.4,8.4,118,15.3
		C371.5,378.8,360.8,365.1,354.1,363.3z"/>
	<path class="st0" d="M342.1,382.9c-22.8-5-60.8-12.3-93.7-12.6c-41.8-0.5-80.1,5.1-110.4,11.6c-6.8,1.5-5.1,11.7,1.8,10.9
		c39.1-4.4,84.9-8.8,108.6-8.1c19.4,0.6,63.1,5,91.7,9.2C347.2,395,349.2,384.5,342.1,382.9z"/>
	<path class="st0" d="M298.2,402.6c-16.1-3.5-34.4-6.3-53.2-6.5c-23.8-0.3-45.6,2.8-62.9,6.6c-3.9,0.8-3,6.6,1,6.2
		c22.2-2.5,48.3-5,61.8-4.7c11,0.3,31.6,3,51.7,6C301.7,411,303.1,403.6,298.2,402.6z"/>
</g>
</svg>
