<?xml version="1.0" encoding="utf-8"?>
<!-- Generator: Adobe Illustrator 23.0.1, SVG Export Plug-In . SVG Version: 6.00 Build 0)  -->
<svg version="1.1"
	 id="svg947" xmlns:cc="http://creativecommons.org/ns#" xmlns:dc="http://purl.org/dc/elements/1.1/" xmlns:inkscape="http://www.inkscape.org/namespaces/inkscape" xmlns:rdf="http://www.w3.org/1999/02/22-rdf-syntax-ns#" xmlns:sodipodi="http://sodipodi.sourceforge.net/DTD/sodipodi-0.dtd" xmlns:svg="http://www.w3.org/2000/svg"
	 xmlns="http://www.w3.org/2000/svg" xmlns:xlink="http://www.w3.org/1999/xlink" x="0px" y="0px" viewBox="0 0 504 504"
	 style="enable-background:new 0 0 504 504;" xml:space="preserve">
<style type="text/css">
	.st0{fill:none;stroke:#BB9645;stroke-width:18;stroke-linecap:round;stroke-linejoin:round;stroke-miterlimit:10;}
	.st1{fill:#BB9645;}
</style>
<g>
	
		<rect x="298.9" y="76.7" transform="matrix(0.9397 0.342 -0.342 0.9397 53.1654 -109.3579)" class="st0" width="75.6" height="38.8"/>
	<path class="st0" d="M176.7,315.2l22.1-60.8c3.1-8.6,10.7-15.2,19.7-17l35-7.1"/>
	<path class="st0" d="M367.7,86.8L318.9,69l6-26.6c1.2-5.2,6.6-8.2,11.6-6.4l39,14.2c5,1.8,7.3,7.6,4.8,12.3L367.7,86.8z"/>
	<path class="st0" d="M37.2,397.1c35.8,0,35.8,19.1,71.6,19.1c35.8,0,35.8-19.1,71.6-19.1c35.8,0,35.8,19.1,71.6,19.1
		c35.8,0,35.8-19.1,71.6-19.1c35.8,0,35.8,19.1,71.6,19.1s35.8-19.1,71.6-19.1"/>
	<path class="st0" d="M37.2,449.4c35.8,0,35.8,19.1,71.6,19.1c35.8,0,35.8-19.1,71.6-19.1c35.8,0,35.8,19.1,71.6,19.1
		c35.8,0,35.8-19.1,71.6-19.1c35.8,0,35.8,19.1,71.6,19.1s35.8-19.1,71.6-19.1"/>
	<path class="st0" d="M180.4,397.1c35.8,0,35.8,19.1,71.6,19.1c35.8,0,35.8-19.1,71.6-19.1c5.3,0,9.8,0.5,13.8,1.2l30-82.5
		c6.6-18.1,3.3-38.3-8.7-53.3l-22.3-27.9c-9.6-12-12.2-28.2-7-42.7l25-68.7l-48.8-17.8l-25,68.7c-5.3,14.5-17.7,25.2-32.8,28.2
		l-35,7.1c-18.9,3.8-34.4,17.2-41,35.3l-62.4,171.6C144.5,415.9,144.8,397.1,180.4,397.1z"/>
</g>
<path class="st1" d="M265.5,248.9c-36.6,0-66.4,29.7-66.4,66.4s29.7,66.4,66.4,66.4s66.4-29.7,66.4-66.4S302.2,248.9,265.5,248.9z
	 M235.6,298.1c0-8.2,6.6-14.8,14.9-14.8h34c4,0,7.8,1.6,10.4,4.3l-17.4,8.8h-24c-2.7,0-4.9,2-4.9,4.3v10.6l-13,6.8L235.6,298.1
	L235.6,298.1z M299.2,320.2c0,8.2-6.7,14.8-14.8,14.8h-35.8v12.7c0,2.1-1.6,3.9-3.5,4.3l-4.4,0.1h-5.1v-4.5v-6.4v-11.1l17.1-8.9
	h28.6c2.7,0,5-2,5-4.4v-13l13-6.5c0,0.3,0,0.5,0,0.8V320.2z"/>
</svg>
