<?xml version="1.0" encoding="utf-8"?>
<!-- Generator: Adobe Illustrator 23.0.1, SVG Export Plug-In . SVG Version: 6.00 Build 0)  -->
<svg version="1.1" id="Layer_1" xmlns="http://www.w3.org/2000/svg" xmlns:xlink="http://www.w3.org/1999/xlink" x="0px" y="0px"
	 viewBox="0 0 560 288" style="enable-background:new 0 0 560 288;" xml:space="preserve">
<style type="text/css">
	.st0{fill:#7F5B53;}
	.st1{fill:#AF8066;}
	.st2{fill:#CB8252;}
	.st3{fill:#59474E;}
	.st4{fill:#FDD7AD;}
	.st5{fill:#805333;}
	.st6{fill:#BDC3C7;}
	.st7{fill:#BB9645;}
	.st8{fill:#E2574C;}
	.st9{fill:#D65348;}
	.st10{fill:#EFC75E;}
	.st11{fill:#E67067;}
	.st12{fill:url(#SVGID_1_);}
	.st13{fill:url(#SVGID_2_);}
	.st14{fill:url(#SVGID_3_);}
	.st15{fill:url(#SVGID_4_);}
	.st16{fill:url(#SVGID_5_);}
</style>
<path class="st0" d="M325.1,169.3c4.7-16.5,4.7-34,0-50.6l-5.4-14.4c-1.6-3.5-3.5-6.9-5.6-10.2c-1-1.5-2.7-2.5-4.5-2.4h-59.2
	c-1.8,0-3.5,0.9-4.5,2.4c-2.1,3.3-4,6.7-5.6,10.2l-5.4,14.4c-4.7,16.5-4.7,34,0,50.6l5.4,14.4c1.6,3.5,3.5,6.9,5.6,10.2
	c1,1.5,2.7,2.5,4.5,2.4h59.2c1.8,0,3.5-0.9,4.5-2.4c2.1-3.3,4-6.7,5.6-10.2L325.1,169.3z"/>
<path class="st1" d="M313.5,169.3c3.5-16.7,3.5-33.9,0-50.6l-4-14.4c-1.5-4.3-3.3-8.6-5.4-12.6h-48.3c-2.1,4.1-3.9,8.3-5.4,12.6
	l-4,14.4c-3.5,16.7-3.5,33.9,0,50.6l4,14.4c1.5,4.3,3.3,8.6,5.4,12.6h48.3c2.1-4.1,3.9-8.3,5.4-12.6L313.5,169.3z"/>
<path class="st2" d="M266,127.7c0.1-3,0.3-6.1,0.6-9l1.6-14.4c0.6-4.4,1.3-8.6,2.1-12.6h19.3c0.8,4.1,1.5,8.3,2.1,12.6l1.6,14.4
	c0.3,3,0.5,6,0.6,9v32.5c-0.1,3-0.3,6.1-0.6,9l-1.6,14.4c-0.6,4.4-1.3,8.6-2.1,12.6h-19.3c-0.8-4.1-1.5-8.3-2.1-12.6l-1.6-14.4
	c-0.3-3-0.5-6-0.6-9V127.7z"/>
<path class="st3" d="M326.5,118.7h-92.9c-0.6,0-1.1-0.3-1.4-0.7c-0.3-0.4-0.5-1-0.3-1.6l2.7-10.8c0.2-0.8,0.9-1.4,1.8-1.4h87.5
	c0.8,0,1.6,0.6,1.8,1.4l2.7,10.8c0.1,0.5,0,1.1-0.3,1.6C327.5,118.5,327,118.7,326.5,118.7z"/>
<path class="st3" d="M326.5,169.3h-92.9c-0.6,0-1.1,0.3-1.4,0.7c-0.3,0.4-0.5,1-0.3,1.5l2.7,10.8c0.2,0.8,0.9,1.4,1.8,1.4h87.5
	c0.8,0,1.6-0.6,1.8-1.4l2.7-10.8c0.1-0.5,0-1.1-0.3-1.5S327,169.3,326.5,169.3z"/>
<path class="st4" d="M305.5,160.3h-51c-0.9,0-1.7-0.7-1.8-1.6c-1.3-9.7-1.3-19.6,0-29.4c0.1-0.9,0.9-1.6,1.8-1.6h51
	c0.9,0,1.7,0.7,1.8,1.6c1.3,9.7,1.3,19.6,0,29.4C307.2,159.6,306.4,160.3,305.5,160.3z"/>
<path class="st5" d="M260.1,154.8c-1,0-1.8-0.8-1.8-1.8v-16.3c0-1,0.8-1.8,1.8-1.8c1,0,1.8,0.8,1.8,1.8V153
	C261.9,154,261.1,154.8,260.1,154.8z"/>
<path class="st5" d="M265.6,147.6h-5.4c-1,0-1.8-0.8-1.8-1.8v-9c0-1,0.8-1.8,1.8-1.8h5.4c3,0,5.4,2.4,5.4,5.4v1.8
	C271,145.2,268.5,147.6,265.6,147.6z M261.9,144h3.6c1,0,1.8-0.8,1.8-1.8v-1.8c0-1-0.8-1.8-1.8-1.8h-3.6V144z"/>
<path class="st5" d="M269.2,154.8c-0.7,0-1.3-0.4-1.6-1l-3.6-7.2c-0.4-0.9-0.1-2,0.8-2.4c0.9-0.4,2-0.1,2.4,0.8l3.6,7.2
	c0.3,0.6,0.3,1.2-0.1,1.8C270.4,154.5,269.8,154.8,269.2,154.8z"/>
<path class="st5" d="M280,154.8h-1.8c-3,0-5.4-2.4-5.4-5.4v-12.6c0-1,0.8-1.8,1.8-1.8c1,0,1.8,0.8,1.8,1.8v12.6c0,1,0.8,1.8,1.8,1.8
	h1.8c1,0,1.8-0.8,1.8-1.8v-12.6c0-1,0.8-1.8,1.8-1.8c1,0,1.8,0.8,1.8,1.8v12.6C285.4,152.4,283,154.8,280,154.8z"/>
<path class="st5" d="M299.9,154.8c-1,0-1.8-0.8-1.8-1.8v-10.8l-2.2,2.9c-0.4,0.4-0.9,0.7-1.4,0.7c-0.6,0-1.1-0.3-1.4-0.7l-2.2-2.9
	V153c0,1-0.8,1.8-1.8,1.8c-1,0-1.8-0.8-1.8-1.8v-16.3c0-0.8,0.5-1.5,1.2-1.7c0.7-0.2,1.5,0,2,0.6l4,5.3l4-5.3c0.5-0.6,1.3-0.9,2-0.6
	c0.7,0.2,1.2,0.9,1.2,1.7V153C301.7,154,300.9,154.8,299.9,154.8z"/>
<g>
	<path class="st6" d="M243.9,111.5c0,1-0.8,1.8-1.8,1.8c-1,0-1.8-0.8-1.8-1.8c0-1,0.8-1.8,1.8-1.8
		C243.1,109.7,243.9,110.5,243.9,111.5z"/>
	<path class="st6" d="M260.1,111.5c0,1-0.8,1.8-1.8,1.8c-1,0-1.8-0.8-1.8-1.8c0-1,0.8-1.8,1.8-1.8
		C259.3,109.7,260.1,110.5,260.1,111.5z"/>
	<path class="st6" d="M319.7,111.5c0,1-0.8,1.8-1.8,1.8c-1,0-1.8-0.8-1.8-1.8c0-1,0.8-1.8,1.8-1.8
		C318.9,109.7,319.7,110.5,319.7,111.5z"/>
	<path class="st6" d="M303.5,111.5c0,1-0.8,1.8-1.8,1.8s-1.8-0.8-1.8-1.8c0-1,0.8-1.8,1.8-1.8S303.5,110.5,303.5,111.5z"/>
	<path class="st6" d="M281.8,111.5c0,1-0.8,1.8-1.8,1.8c-1,0-1.8-0.8-1.8-1.8c0-1,0.8-1.8,1.8-1.8
		C281,109.7,281.8,110.5,281.8,111.5z"/>
	<path class="st6" d="M243.9,176.5c0,1-0.8,1.8-1.8,1.8c-1,0-1.8-0.8-1.8-1.8c0-1,0.8-1.8,1.8-1.8
		C243.1,174.7,243.9,175.5,243.9,176.5z"/>
	<path class="st6" d="M260.1,176.5c0,1-0.8,1.8-1.8,1.8c-1,0-1.8-0.8-1.8-1.8c0-1,0.8-1.8,1.8-1.8
		C259.3,174.7,260.1,175.5,260.1,176.5z"/>
	<path class="st6" d="M319.7,176.5c0,1-0.8,1.8-1.8,1.8c-1,0-1.8-0.8-1.8-1.8c0-1,0.8-1.8,1.8-1.8
		C318.9,174.7,319.7,175.5,319.7,176.5z"/>
	<path class="st6" d="M303.5,176.5c0,1-0.8,1.8-1.8,1.8s-1.8-0.8-1.8-1.8c0-1,0.8-1.8,1.8-1.8S303.5,175.5,303.5,176.5z"/>
	<path class="st6" d="M281.8,176.5c0,1-0.8,1.8-1.8,1.8c-1,0-1.8-0.8-1.8-1.8c0-1,0.8-1.8,1.8-1.8
		C281,174.7,281.8,175.5,281.8,176.5z"/>
</g>
<g>
	<path class="st7" d="M357.3,141h11.1h10h11.1c2.7,0,4.9-2.3,4.9-5s-2.2-5-4.9-5h-11.1h-10h-11.1c-2.7,0-4.9,2.3-4.9,5
		S354.6,141,357.3,141z"/>
	<path class="st7" d="M389.4,147h-11.1h-10h-11.1c-2.7,0-4.9,2.3-4.9,5s2.2,5,4.9,5h11.1h10h11.1c2.7,0,4.9-2.3,4.9-5
		S392.1,147,389.4,147z"/>
</g>
<path class="st8" d="M423.9,105.6c16.6-16.8,32.9-9.4,46,2.5c13.1-11.9,29.4-19.4,46-2.5c13,13.2,13.1,34.4,0,47.5
	c-21.9,20.1-33.3,30.4-39.3,35.9c-3.7,3.4-9.4,3.4-13.2,0c-6-5.4-17.5-15.9-39.6-35.9C410.8,140,410.9,118.9,423.9,105.6z"/>
<path class="st9" d="M469.9,108.1v83.5c2.4,0,4.8-0.9,6.7-2.5c6-5.5,17.4-15.9,39.3-35.9c13.1-13.2,13-34.4,0-47.5
	C499.3,88.7,483,96.2,469.9,108.1z"/>
<path class="st10" d="M499.6,103.6c7.8-0.9,12.2-5.2,13.1-13.1c0.9,7.8,5.2,12.2,13.1,13.1c-7.8,0.9-12.2,5.2-13.1,13.1
	C511.8,108.8,507.4,104.5,499.6,103.6z"/>
<path class="st11" d="M426.3,128.4c0-11.2,9.2-20.4,20.4-20.4c1.3,0,2.3,1,2.3,2.3c0,1.3-1,2.3-2.3,2.3c-8.7,0-15.8,7.1-15.8,15.8
	c0,1.3-1,2.3-2.3,2.3C427.4,130.6,426.3,129.6,426.3,128.4z"/>
<path class="st7" d="M202.7,138.7h-11.1v-11.1c0-2.7-2.3-4.9-5-4.9c-2.7,0-5,2.2-5,4.9v11.1h-11.1c-2.7,0-4.9,2.3-4.9,5s2.2,5,4.9,5
	h11.1v11.1c0,2.7,2.3,4.9,5,4.9c2.7,0,5-2.2,5-4.9v-11.1h11.1c2.7,0,4.9-2.3,4.9-5S205.4,138.7,202.7,138.7z"/>
<g>
	<linearGradient id="SVGID_1_" gradientUnits="userSpaceOnUse" x1="45.762" y1="123.5434" x2="119.6587" y2="123.5434">
		<stop  offset="0" style="stop-color:#B38C30"/>
		<stop  offset="1" style="stop-color:#F2DE98"/>
	</linearGradient>
	<path class="st12" d="M54.3,160c2-0.4,6.2-1.2,11.3-2c0.6-0.1,1.2,0.5,1,1.1c-0.3,1.2-0.6,2.3-1.1,3.5c-0.1,0.4,0.2,0.9,0.7,0.8
		c22.6-4.4,38.6-12,51.9-22.6c0.7-0.6,1.2-1.4,1.3-2.3c1-6.8-1-10.6-3-12.4c-2.2-2-3.9-3.9-15.7-4.7c-6.7-0.3-10.4,0.1-11.6,0.2
		c-0.2,0-0.3,0.3-0.2,0.4c1.2,1.9,6.5,10.7,4.9,18.7l-2.6-9.1c-1.7-4.7-4.4-9.3-5.6-10.9c-0.3-0.5-0.2-0.9,0.4-1
		c1.6-0.3,4.8-0.4,8.4-0.6c4.2-0.2,8.3,0,11,0.3c-3-14.7-9.4-20.1-23.8-21.1V84.3c0-0.3-0.3-0.6-0.6-0.6h-2.1
		c-0.3,0-0.6,0.3-0.6,0.6v14c-11.9-0.3-22.3,0.8-25.6,1.1c-0.4,0-0.6,0.5-0.4,0.9c1.2,1.9,5.7,7.6,7.6,15.5
		c-4.3-0.1-8.9,0.5-13.4,2.2c-0.5,0.2-0.6,0.8-0.3,1.2c11.9,14.6,8.4,34.9,7.3,40C53.2,159.6,53.7,160.1,54.3,160z"/>
	<linearGradient id="SVGID_2_" gradientUnits="userSpaceOnUse" x1="57.1775" y1="86.6756" x2="76.0489" y2="86.6756">
		<stop  offset="0" style="stop-color:#B38C30"/>
		<stop  offset="1" style="stop-color:#F2DE98"/>
	</linearGradient>
	<path class="st13" d="M68.3,89.7c0,0-0.3-1.2,0-2.4C71.4,86.7,76,88,76,88s0-2.1,0-3.8c-2.4-1.1-7.7-0.9-9.4-0.6
		c-1.7,0.4-2.1,1.2-2.4,2c-3.4,0.1-7.1,0.9-7.1,0.9l2.3,1.4L57.6,90C60.7,88.7,68.3,89.7,68.3,89.7z"/>
	<linearGradient id="SVGID_3_" gradientUnits="userSpaceOnUse" x1="42.1564" y1="161.9564" x2="133.0132" y2="161.9564">
		<stop  offset="0" style="stop-color:#B38C30"/>
		<stop  offset="1" style="stop-color:#F2DE98"/>
	</linearGradient>
	<path class="st14" d="M125.9,184.6c-4.8-1.3-3.9-1.3-9.7-2.4c3.3-3.9,13.5-16.8,11-20.9c-3-4.8-6.5-8-5.3-12.7s8.9-10,10.6-11.5
		s-1.4-4.2-2.7-3c-1.4,1.2-2.4,2.1-5.7,4.5c-4.1,3-7.4,6.7-7.1,11.9c0.3,4.7,0.4,17.9-5.7,24.9c-0.3,0.4-0.9,0-0.7-0.5
		c1.5-3.3,1.8-7.8,1.5-11.4c-12.6,6.3-23.8,7.5-31.3,7.5c-0.4,0-0.5-0.6-0.1-0.7c12-2.4,30.1-8.7,31.1-11.4c1.1-3-0.5-8.4-0.5-8.4
		s-5.9,3-14.5,6.4c-2.8,1.2-5.9,2.4-9.2,3.5c-0.7,0.2-1.5,0.5-2.1,0.7c-9.7,3.2-22.8,6.2-30,5.9c-5.9-0.2-9.7-0.8-11-0.9
		c-0.2,0-0.4,0.1-0.4,0.4c0.1,2.2,0.9,11.4,5.1,15.8c-0.9,0.2-2.6,0.6-3.9,1.3c-1.2,0.6-4.7,4.1-2.1,3.8c14.7-1.7,33.5-3.2,42.5-3
		c9.4,0.3,27.9,3.2,44.3,5.7C132.5,190.4,128.5,185.3,125.9,184.6z"/>
	<linearGradient id="SVGID_4_" gradientUnits="userSpaceOnUse" x1="43.1368" y1="191.6928" x2="123.0975" y2="191.6928">
		<stop  offset="0" style="stop-color:#B38C30"/>
		<stop  offset="1" style="stop-color:#F2DE98"/>
	</linearGradient>
	<path class="st15" d="M121.5,192c-8.6-1.9-22.9-4.6-35.2-4.7c-15.7-0.2-30.1,1.9-41.5,4.4c-2.6,0.6-1.9,4.4,0.7,4.1
		c14.7-1.7,31.9-3.3,40.8-3c7.3,0.2,23.7,1.9,34.4,3.5C123.3,196.5,124.1,192.6,121.5,192z"/>
	<linearGradient id="SVGID_5_" gradientUnits="userSpaceOnUse" x1="60.397" y1="199.6076" x2="106.0801" y2="199.6076">
		<stop  offset="0" style="stop-color:#B38C30"/>
		<stop  offset="1" style="stop-color:#F2DE98"/>
	</linearGradient>
	<path class="st16" d="M104.9,199.4c-6-1.3-12.9-2.4-20-2.4c-8.9-0.1-17.1,1.1-23.6,2.5c-1.5,0.3-1.1,2.5,0.4,2.3
		c8.3-0.9,18.1-1.9,23.2-1.8c4.2,0.1,11.9,1.1,19.4,2.3C106.3,202.6,106.8,199.8,104.9,199.4z"/>
</g>
</svg>
